HIERARCHY
ROOT Hips
{
  OFFSET 41.6855 103.514 -148.883
  CHANNELS 6 Xposition Yposition Zposition Zrotation Xrotation Yrotation
  JOINT RightUpLeg
  {
    OFFSET -8.9458 -8.66707 0.101652
    CHANNELS 3 Zrotation Xrotation Yrotation
    JOINT RightLeg
    {
      OFFSET 0 -44.4227 1.3727
      CHANNELS 3 Zrotation Xrotation Yrotation
      JOINT RightFoot
      {
        OFFSET 0.253549 -42.0924 -1.46059
        CHANNELS 3 Zrotation Xrotation Yrotation
        JOINT RightToes
        {
          OFFSET 0.04 -4.41509 8.4991
          CHANNELS 3 Zrotation Xrotation Yrotation
          End Site
          {
            OFFSET -0.08 -0.137448 9.77979
          }
        }
      }
    }
  }
  JOINT Spine
  {
    OFFSET 0 11.8905 0
    CHANNELS 3 Zrotation Xrotation Yrotation
    JOINT Spine1
    {
      OFFSET 0 25.6574 0.127663
      CHANNELS 3 Zrotation Xrotation Yrotation
      JOINT HEad
      {
        OFFSET 0 8.73416 0.011341
        CHANNELS 3 Zrotation Xrotation Yrotation
        End Site
        {
          OFFSET -0.29 12.7742 2.51395
        }
      }
      JOINT LeftShoulder1
      {
        OFFSET 8.99 -0.362252 -0.22
        CHANNELS 3 Zrotation Xrotation Yrotation
        JOINT LeftArm
        {
          OFFSET 10.2827 -0.00338 0.322123
          CHANNELS 3 Zrotation Xrotation Yrotation
          JOINT LeftForeArm
          {
            OFFSET 32.7669 0.099144 -1.42434
            CHANNELS 3 Zrotation Xrotation Yrotation
            JOINT LeftHand
            {
              OFFSET 27.5643 0.085362 1.02216
              CHANNELS 3 Zrotation Xrotation Yrotation
              End Site
              {
                OFFSET 16.7443 -0.6 1.50291
              }
            }
          }
        }
      }
      JOINT RightShoulder
      {
        OFFSET -8.99 -0.362252 -0.22
        CHANNELS 3 Zrotation Xrotation Yrotation
        JOINT RightArm
        {
          OFFSET -10.2827 -0.00338 0.322123
          CHANNELS 3 Zrotation Xrotation Yrotation
          JOINT RightForeArm
          {
            OFFSET -32.8971 0.099144 -1.42434
            CHANNELS 3 Zrotation Xrotation Yrotation
            JOINT RightHand
            {
              OFFSET -27.4921 0.085362 1.02216
              CHANNELS 3 Zrotation Xrotation Yrotation
              End Site
              {
                OFFSET -16.6312 -0.6 1.50291
              }
            }
          }
        }
      }
    }
  }
  JOINT LeftUpLeg
  {
    OFFSET 8.9458 -8.66707 0.101652
    CHANNELS 3 Zrotation Xrotation Yrotation
    JOINT LeftLeg
    {
      OFFSET 0 -44.4227 1.3727
      CHANNELS 3 Zrotation Xrotation Yrotation
      JOINT LeftFoot
      {
        OFFSET -0.253549 -42.0924 -1.46059
        CHANNELS 3 Zrotation Xrotation Yrotation
        JOINT LeftToes
        {
          OFFSET -0.04 -4.41509 8.4991
          CHANNELS 3 Zrotation Xrotation Yrotation
          End Site
          {
            OFFSET 0.08 -0.047448 9.77979
          }
        }
      }
    }
  }
}
MOTION
Frames:	14
Frame Time:	0.0166667
40.9438 103.459 -153.437 -0.70024 -0.0558642 -4.05776 0.463625 7.19623 0.299186 2.22367 29.9089 -32.1427 25.7438 -0.132037 -0.714464 0.0462048 0.000533964 0.662642 1.26606 3.20325 0.0498344 1.45007 -12.4667 -0.0942073 -0.178831 21.6353 8.36858 -7.95139e-016 -1.59028e-015 7.95139e-016 -78.7278 -43.0844 8.40924 -26.5729 13.2445 -6.40392 0.368473 9.90896 -0.00117926 -1.61929 0.836676 8.36113 76.3401 -7.22374 24.7398 24.656 18.5327 31.6546 -0.369625 9.91382 0.00119887 4.09948 -29.6096 1.17172 -12.6475 28.9799 39.3382 -1.9453 -8.69157 0.0136551 -2.24078e-011 4.96739e-011 3.55904e-012 
41.312 103.489 -151.134 -0.24629 -0.130026 -3.85354 -0.840531 5.80163 -0.864041 2.52317 34.2482 -33.3122 25.8567 1.90649 -1.17363 -0.506538 4.05969 1.77859 0.992086 3.21957 -0.0411306 0.580083 -12.4822 -0.112865 0.242838 21.1147 8.1835 9.93923e-017 1.59028e-015 7.95139e-016 -77.66 -43.9243 9.41552 -26.2658 13.0458 -5.47894 0.368473 9.90896 -0.00117926 -1.49531 0.879794 8.77346 76.3779 -7.99714 23.3711 24.3639 18.6837 32.6569 -0.369625 9.91382 0.00119887 3.43757 -28.9039 1.67578 -13.1559 30.4699 38.5324 -1.97683 -9.92348 -0.011901 0.276018 -1.52234 0.454422 
41.6855 103.514 -148.883 0.2617 -0.117609 -3.65042 -2.1677 4.01869 -1.84658 2.90687 38.7966 -34.5828 25.9211 4.16518 -1.67614 -0.8403 7.72912 2.08077 0.595227 3.26191 -0.110785 -0.269399 -12.5801 -0.12985 0.636887 20.7573 7.94781 9.93923e-017 -3.18055e-015 -7.95139e-016 -76.6289 -44.5925 10.3865 -26.0163 12.8919 -4.77586 0.368473 9.90896 -0.00117926 -1.37266 0.914451 9.07121 76.3765 -8.70686 21.9863 24.1351 18.7989 33.4827 -0.369625 9.91382 0.00119887 2.64919 -28.2222 1.99267 -13.6099 31.7827 37.9347 -1.97876 -11.1971 -0.0338033 0.528512 -2.83874 0.841996 
42.0749 103.518 -146.772 0.968288 0.154366 -3.45976 -3.53628 1.11855 -2.41871 3.06583 44.1981 -35.7211 25.7779 7.3431 -2.36617 0.171306 10.1731 -0.41464 -0.187161 3.38693 -0.122552 -1.11702 -12.9615 -0.143624 0.972634 20.9499 7.54955 -9.93923e-017 -1.59028e-015 7.95139e-016 -75.6954 -44.8211 11.3256 -25.9552 12.8699 -4.67787 0.368473 9.90896 -0.00117926 -1.24596 0.929171 9.08196 76.3154 -9.20125 20.5405 24.1168 18.8466 33.8213 -0.369625 9.91382 0.00119887 1.51879 -27.6201 1.86868 -14.0302 32.5592 37.9185 -1.88003 -12.6453 -0.0451063 0.623028 -3.51434 0.982078 
42.4703 103.528 -144.747 1.64778 0.513791 -3.25204 -4.71967 -2.25223 -2.59074 3.32083 49.6763 -36.8036 25.6623 10.2214 -2.99833 1.49465 12.3405 -3.20311 -1.05904 3.52877 -0.100901 -1.82511 -13.3536 -0.152193 1.26128 21.1858 7.10742 -9.93923e-017 0 1.19271e-015 -75.0759 -44.7875 11.8975 -25.9625 12.9225 -4.91328 0.368473 9.90896 -0.00117926 -1.13277 0.925437 8.86456 76.2736 -9.62253 19.1033 24.1702 18.8499 33.8891 -0.369625 9.91382 0.00119887 0.291115 -27.0345 1.36536 -14.3939 33.0569 38.1892 -1.76939 -14.036 -0.0510684 0.72543 -4.03141 1.14429 
42.8718 103.582 -142.78 2.07134 0.860376 -2.99774 -5.35401 -5.74686 -2.16672 3.58824 54.671 -37.5726 25.7222 11.7048 -3.32923 1.95023 15.5745 -4.11234 -1.77163 3.62021 -0.0547316 -2.19156 -13.5323 -0.151742 1.50015 20.9952 6.73687 -2.20695e-032 3.18055e-015 3.97569e-016 -75.0229 -44.6073 11.744 -25.9686 13.0305 -5.39229 0.368473 9.90896 -0.00117926 -1.07014 0.895017 8.37165 76.3428 -10.0741 17.7536 24.1838 18.8096 33.7964 -0.369625 9.91382 0.00119887 -0.844419 -26.4332 0.333664 -14.6413 33.3922 38.6235 -1.71848 -15.0825 -0.0522395 1.00817 -4.85473 1.58275 
43.2597 103.628 -140.87 2.39757 1.1513 -2.70764 -5.63942 -9.20979 -1.50111 3.96724 59.1154 -37.4838 25.73 12.1408 -3.41576 1.84423 18.0255 -3.93044 -2.44576 3.72197 0.00582602 -2.42741 -13.5527 -0.145952 1.65313 20.6523 6.35251 -2.48481e-016 1.59028e-015 -3.97569e-016 -75.4061 -44.2034 11.0009 -25.9354 13.1581 -5.95615 0.368473 9.90896 -0.00117926 -0.996936 0.854903 7.74957 76.4272 -10.5406 16.4207 24.2075 18.7392 33.5529 -0.369625 9.91382 0.00119887 -1.93087 -25.76 -0.846837 -14.8202 33.6595 39.0693 -1.70847 -16.0809 -0.0558198 1.39256 -5.59962 2.1684 
43.6115 103.6 -139.023 2.73558 1.27281 -2.38309 -5.76249 -12.3203 -0.917491 4.21248 62.7253 -34.8148 25.4778 11.2385 -3.1757 1.10745 17.6127 -2.51353 -3.14304 3.90653 0.0727112 -2.70869 -13.3469 -0.13642 1.62588 20.2685 5.90621 -2.98177e-016 1.59028e-015 -0 -76.1936 -43.4851 9.62605 -25.7745 13.2583 -6.3795 0.368473 9.90896 -0.00117926 -0.856478 0.82243 7.15163 76.4419 -11.0413 15.0776 24.2537 18.6515 33.2061 -0.369625 9.91382 0.00119887 -3.00531 -24.972 -1.82199 -14.9436 34.0899 39.2884 -1.74235 -17.3049 -0.06983 1.90829 -5.95268 2.9625 
43.9358 103.578 -137.187 3.01288 1.33702 -2.02262 -5.74506 -15.2123 -0.309918 3.89707 65.3621 -31.2577 25.2096 9.80895 -2.82043 0.11222 16.2811 -0.50082 -3.79254 4.07139 0.130828 -2.939 -13.0608 -0.125752 1.60128 19.861 5.39736 5.96354e-016 0 5.96354e-016 -77.2167 -42.5481 7.8814 -25.5788 13.3525 -6.76983 0.368473 9.90896 -0.00117926 -0.669851 0.789018 6.50961 76.4315 -11.5768 13.6703 24.3212 18.5451 32.7525 -0.369625 9.91382 0.00119887 -3.94628 -24.0342 -2.68818 -15.0437 34.4111 39.4242 -1.82941 -18.5359 -0.0932517 2.35045 -6.16581 3.64263 
44.2291 103.636 -135.301 3.19831 1.44146 -1.63751 -5.6936 -17.9455 0.362989 4.04662 66.8909 -29.6005 25.1349 8.63358 -2.54977 -1.04042 15.5795 1.82202 -4.33189 4.11433 0.155702 -3.09569 -12.8401 -0.117862 1.78814 19.4831 4.80068 -3.47873e-016 1.59028e-015 -1.98785e-016 -78.3269 -41.4896 5.98534 -25.4228 13.4391 -7.12976 0.368473 9.90896 -0.00117926 -0.41607 0.753352 5.80239 76.4027 -12.1092 12.1291 24.4266 18.4305 32.24 -0.369625 9.91382 0.00119887 -4.6021 -22.8836 -3.32354 -15.1564 34.3876 39.5354 -2.03247 -19.6317 -0.136412 2.39345 -6.40815 3.70019 
44.5051 103.735 -133.391 3.2703 1.51644 -1.19086 -5.54428 -20.4228 0.963787 4.44077 67.4711 -29.2004 25.094 7.51462 -2.29917 -1.88719 14.6758 3.61538 -4.79512 4.10697 0.167269 -3.13315 -12.6181 -0.110295 2.02006 19.1363 4.1393 -6.33626e-016 -1.59028e-015 -0 -79.5001 -40.2515 3.9749 -25.2707 13.5391 -7.54897 0.368473 9.90896 -0.00117926 -0.165443 0.710846 5.04208 76.3695 -12.7693 10.4704 24.5279 18.2829 31.5626 -0.369625 9.91382 0.00119887 -5.10199 -21.5622 -4.03175 -15.2824 34.1326 39.6251 -2.19385 -20.6358 -0.173319 2.43209 -6.62048 3.75561 
44.7831 103.866 -131.456 3.17222 1.50184 -0.659687 -5.26459 -22.544 1.30868 4.54152 67.159 -29.9878 25.0104 6.46546 -2.05941 -1.74427 13.2288 3.49629 -5.21239 4.09188 0.186746 -2.93167 -12.3682 -0.100243 2.14321 18.8922 3.43246 -7.17488e-016 7.95139e-016 7.45443e-017 -80.6809 -38.8167 1.99174 -25.1139 13.6857 -8.18256 0.368473 9.90896 -0.00117926 -0.0303158 0.655703 4.25749 76.3418 -13.724 8.65888 24.5793 18.0572 30.5499 -0.369625 9.91382 0.00119887 -5.48481 -20.0584 -5.19599 -15.5013 33.6458 39.7695 -2.10989 -21.5243 -0.169848 2.8932 -6.80962 4.46199 
45.0428 104.01 -129.517 2.98351 1.46631 -0.0136273 -4.98105 -24.3876 1.53035 4.80333 66.0222 -31.7169 24.839 5.63424 -1.86325 -1.36208 11.3977 2.86174 -5.53378 4.05397 0.185879 -2.69117 -12.1159 -0.0927173 2.33601 18.5945 2.66404 -4.53478e-016 7.95139e-016 9.93923e-017 -81.8389 -37.1914 -0.0820128 -24.939 13.8357 -8.83847 0.368473 9.90896 -0.00117926 0.135108 0.5902 3.37739 76.2652 -14.8329 6.76632 24.5915 17.8056 29.4474 -0.369625 9.91382 0.00119887 -5.76141 -18.4542 -6.41891 -15.617 33.0341 39.8228 -1.97357 -22.3576 -0.158032 3.38727 -6.94023 5.21621 
45.2638 104.144 -127.602 2.757 1.47115 0.83375 -4.79471 -26.0151 1.73818 5.4532 64.1036 -34.1852 24.403 5.27762 -1.75614 -1.14198 8.87841 2.64126 -5.69363 3.98951 0.133994 -2.6086 -11.87 -0.0933448 2.77757 18.0435 1.84764 -9.69075e-016 0 3.97569e-016 -82.9344 -35.3213 -2.39871 -24.7116 13.9525 -9.34396 0.368473 9.90896 -0.00117926 0.467772 0.512053 2.28033 76.1444 -16.0379 4.83758 24.532 17.6081 28.617 -0.369625 9.91382 0.00119887 -6.01995 -16.8337 -7.43114 -15.4198 32.3877 39.611 -1.9342 -23.2265 -0.163889 3.65224 -6.89588 5.62631 
